<svg id="Layer_1" data-name="Layer 1" xmlns="http://www.w3.org/2000/svg" xmlns:xlink="http://www.w3.org/1999/xlink" viewBox="0 0 140 140"><defs><style>.cls-1,.cls-4{fill:none;}.cls-2{fill:#688274;}.cls-3{clip-path:url(#clip-path);}.cls-4{stroke:#fff;stroke-miterlimit:10;stroke-width:2px;}</style><clipPath id="clip-path"><circle class="cls-1" cx="70.19" cy="70.36" r="69.85"/></clipPath></defs><title>Green</title><polygon class="cls-2" points="140.55 70.35 140.41 74.93 139.73 79.46 139.01 83.97 138.03 88.43 136.64 92.78 135.01 97.05 133.29 101.29 131.09 105.3 128.62 109.14 125.92 112.83 123 116.34 119.91 119.7 116.72 122.98 113.05 125.73 109.39 128.47 105.47 130.81 101.44 132.97 97.31 134.91 92.98 136.38 88.64 137.8 84.17 138.74 79.68 139.52 75.13 139.97 70.57 140.19 66 139.94 61.43 139.71 56.94 138.83 52.47 137.88 48.1 136.53 43.88 134.77 39.66 133.01 35.69 130.77 31.79 128.38 28.09 125.71 24.44 122.95 21.24 119.68 17.97 116.48 15.25 112.8 12.52 109.14 9.97 105.33 7.84 101.28 5.97 97.11 4.46 92.79 2.98 88.46 2.04 83.98 1.3 79.47 0.79 74.93 0.65 70.35 0.87 65.78 1.45 61.25 2.17 56.74 3.05 52.26 4.32 47.86 6.01 43.61 7.84 39.42 10.04 35.41 12.6 31.62 15.24 27.9 18.07 24.31 21.14 20.93 24.44 17.75 28.07 14.97 31.71 12.2 35.63 9.84 39.69 7.74 43.87 5.89 48.07 4.07 52.45 2.74 56.93 1.81 61.44 1.05 65.99 0.57 70.57 0.38 75.14 0.69 79.7 0.97 84.19 1.91 88.65 2.89 93.06 4.1 97.36 5.68 101.53 7.58 105.49 9.87 109.38 12.27 113.04 15.01 116.7 17.75 119.87 21.05 123.15 24.24 125.89 27.91 128.53 31.63 131.03 35.45 133.16 39.49 135.08 43.63 136.59 47.94 137.96 52.29 139.06 56.73 139.94 61.22 140.2 65.79 140.55 70.35"/><g class="cls-3"><polyline class="cls-4" points="146.09 96.1 139.79 93 133.43 90.03 127 87.2 120.43 84.72 113.89 82.17 107.33 79.66 100.65 77.48 93.89 75.56 87.06 74"/><polygon class="cls-4" points="128.99 88.28 125.12 81.72 120.99 75.41 116.06 69.7 110.57 64.53 104.69 59.82 98.31 55.8 92.04 53.2 85.33 52.16 78.54 51.84 71.76 52.36 65.05 53.5 58.42 54.99 51.86 56.79 45.37 58.84 38.98 61.48 44.48 66.38 49.98 71.14 55.48 75.89 61.19 80.39 66.95 84.83 72.81 89.14 79.01 92.97 85.57 96.12 92.6 97.75 100.1 97.05 107.53 95.7 114.76 93.5 121.91 91.08 128.99 88.28"/></g></svg>