<svg id="Layer_1" data-name="Layer 1" xmlns="http://www.w3.org/2000/svg" viewBox="0 0 270 170"><defs><style>.cls-1{fill:#688274;}.cls-2{fill:#c4462b;}.cls-3{fill:#ffcd03;}.cls-4{fill:#292631;}</style></defs><title>logo1</title><polygon class="cls-1" points="48.99 25.03 48.46 29.3 47.53 33.51 45.55 37.33 43.16 40.89 40.23 44.04 36.74 46.58 32.84 48.43 28.65 49.42 24.37 49.81 20.11 49.35 15.9 48.42 12.13 46.36 8.51 44.03 5.66 40.82 3.25 37.3 1.37 33.45 0.31 29.3 -0.09 25.03 0.38 20.77 1.42 16.62 3.15 12.7 5.47 9.08 8.62 6.14 12.02 3.51 15.91 1.65 20.09 0.64 24.37 0.21 28.66 0.55 32.83 1.66 36.75 3.47 40.09 6.19 43.09 9.22 45.52 12.74 47.37 16.61 48.45 20.75 48.99 25.03"/><polygon class="cls-2" points="158.77 85.74 158.61 90.04 157.29 94.14 155.58 98.06 153.26 101.69 150.22 104.74 146.7 107.22 142.77 108.97 138.67 110.25 134.37 110.53 130.09 110.16 125.92 109.1 122.03 107.24 118.57 104.68 115.67 101.53 113.22 98.02 111.29 94.19 110.15 90.04 109.87 85.74 110.16 81.45 111.3 77.29 113.24 73.47 115.65 69.94 118.59 66.82 122.04 64.26 125.91 62.35 130.1 61.38 134.37 60.87 138.65 61.32 142.78 62.51 146.63 64.38 150.26 66.7 153.29 69.78 155.64 73.39 157.46 77.29 158.58 81.45 158.77 85.74"/><polygon class="cls-3" points="269.74 145.44 269.62 149.75 268.28 153.83 266.71 157.84 264.08 161.24 261.15 164.36 257.63 166.8 253.83 168.83 249.67 169.95 245.37 170.3 241.09 169.86 236.95 168.72 233.01 166.98 229.51 164.45 226.63 161.26 224.03 157.84 222.3 153.89 221.26 149.72 220.93 145.44 221.11 141.14 222.37 137.02 224.09 133.08 226.5 129.52 229.57 126.5 233.02 123.92 236.92 122.08 241.1 121.09 245.37 120.72 249.67 120.9 253.83 122.06 257.64 124.06 261.14 126.54 264.19 129.56 266.66 133.08 268.48 136.98 269.57 141.15 269.74 145.44"/><polygon class="cls-4" points="31.78 109.44 27.87 109.59 23.88 109.55 19.87 109.48 15.93 109.46 15.98 105.11 15.94 100.7 15.73 96.28 15.93 91.87 15.84 87.45 15.93 83.04 15.93 78.62 15.87 74.21 16.02 69.79 15.91 65.37 15.97 61.04 19.87 61.04 23.86 61.04 27.87 60.96 31.78 61.03 31.96 65.36 31.82 69.77 31.91 74.19 31.88 78.6 31.73 83.02 31.87 87.43 31.77 91.84 31.8 96.26 31.8 100.68 31.97 105.1 31.78 109.44"/><polygon class="cls-4" points="77.89 109.54 73.87 109.5 69.88 109.47 65.87 109.64 61.9 109.49 61.84 105.11 61.8 100.7 61.87 96.28 61.77 91.87 61.79 87.45 61.94 83.04 61.94 78.62 61.74 74.21 61.77 69.79 61.94 65.37 61.91 60.98 65.87 60.95 69.86 60.91 73.87 60.88 77.92 60.91 77.87 65.36 77.86 69.77 77.89 74.19 77.73 78.6 78 83.02 78.01 87.43 77.77 91.84 77.79 96.26 77.84 100.68 77.77 105.1 77.89 109.54"/><polygon class="cls-4" points="77.5 69.57 80.05 65.97 83.82 63.6 87.91 61.84 92.24 61.51 92.34 65.5 92.27 69.55 92.47 73.64 87.86 75.1 83.77 77.5 80.42 80.87 78.26 85.11 77.26 89.79 77.29 84.73 77.47 79.67 77.27 74.61 77.5 69.57"/><polygon class="cls-4" points="142.49 170 138.4 169.88 134.4 169.81 130.4 169.98 126.39 169.92 126.45 165.5 126.34 161.09 126.51 156.68 126.28 152.26 126.48 147.84 126.51 143.43 126.39 139.02 126.46 134.6 126.42 130.18 126.53 125.76 126.44 121.38 130.39 121.29 134.38 121.46 138.39 121.22 142.39 121.34 142.46 125.75 142.36 130.16 142.43 134.58 142.48 138.99 142.51 143.41 142.52 147.82 142.31 152.24 142.32 156.65 142.36 161.07 142.52 165.49 142.49 170"/><polygon class="cls-4" points="188.32 169.85 184.4 169.91 180.4 170.02 176.4 169.98 172.28 170.01 172.3 165.5 172.26 161.09 172.35 156.68 172.26 152.26 172.29 147.84 172.3 143.43 172.5 139.02 172.24 134.6 172.39 130.18 172.53 125.76 172.37 121.32 176.39 121.49 180.38 121.39 184.39 121.25 188.3 121.43 188.52 125.75 188.4 130.16 188.24 134.58 188.36 138.99 188.37 143.41 188.53 147.82 188.5 152.24 188.46 156.65 188.32 161.07 188.34 165.49 188.32 169.85"/><polygon class="cls-4" points="188.01 129.96 190.64 126.44 194.21 123.75 198.47 122.38 202.95 121.82 202.8 125.89 202.81 129.94 202.9 133.99 198.41 135.54 194.21 137.79 190.9 141.23 188.75 145.49 187.75 150.19 187.88 145.13 187.81 140.07 187.89 135 188.01 129.96"/></svg>