<svg id="Layer_1" data-name="Layer 1" xmlns="http://www.w3.org/2000/svg" xmlns:xlink="http://www.w3.org/1999/xlink" viewBox="0 0 140 140"><defs><style>.cls-1{fill:none;}.cls-2{fill:#c4462b;}.cls-3{clip-path:url(#clip-path);}.cls-4{fill:#fff;}</style><clipPath id="clip-path"><circle class="cls-1" cx="70" cy="70.5" r="70"/></clipPath></defs><title>Red</title><polygon class="cls-2" points="139.94 69.88 139.87 74.47 139.46 79.03 138.66 83.55 137.71 88.03 136.36 92.42 134.61 96.66 132.72 100.82 130.73 104.96 128.28 108.84 125.47 112.46 122.58 116.01 119.48 119.39 116.17 122.55 112.64 125.48 108.91 128.15 104.99 130.52 100.95 132.67 96.79 134.59 92.45 136.06 88.14 137.64 83.67 138.69 79.11 139.19 74.56 139.66 69.99 139.85 65.41 139.64 60.86 139.17 56.31 138.62 51.85 137.54 47.49 136.15 43.22 134.49 39.06 132.58 35.01 130.46 31.01 128.21 27.41 125.37 23.81 122.54 20.53 119.34 17.4 116 14.44 112.5 11.9 108.69 9.39 104.87 7.32 100.79 5.38 96.64 3.77 92.36 2.37 88 1.44 83.52 0.48 79.04 0.18 74.46 -0.05 69.88 0.13 65.3 0.72 60.76 1.32 56.22 2.45 51.79 3.75 47.4 5.37 43.12 7.1 38.87 9.44 34.93 11.69 30.93 14.55 27.35 17.4 23.76 20.42 20.31 23.79 17.2 27.35 14.31 31.13 11.73 34.93 9.17 39.02 7.09 43.19 5.19 47.46 3.51 51.85 2.19 56.33 1.22 60.87 0.62 65.42 0.15 69.99 -0.15 74.57 -0.06 79.13 0.47 83.66 1.15 88.12 2.23 92.45 3.72 96.74 5.31 100.94 7.12 105.02 9.21 108.94 11.58 112.57 14.39 116.19 17.2 119.49 20.38 122.57 23.77 125.45 27.33 128.3 30.92 130.73 34.81 132.8 38.91 134.71 43.07 136.36 47.35 137.73 51.73 138.61 56.23 139.52 60.73 139.76 65.31 139.94 69.88"/><g class="cls-3"><polygon class="cls-4" points="45.98 137.57 45.98 70.97 58.04 70.97 57.93 139.47 45.98 137.57"/><polygon class="cls-4" points="84.56 140.5 84.56 70.97 94.2 70.97 94.12 139.47 84.56 140.5"/><polygon class="cls-4" points="26.69 63.78 35.42 70.17 105.26 70.17 111.08 63.78 108.17 82.96 32.51 82.96 26.69 63.78"/><polygon class="cls-4" points="33.92 90.15 106.26 90.15 103.25 97.34 36.94 97.34 33.92 90.15"/></g></svg>